<mxfile host="app.diagrams.net" modified="2024-01-18T15:59:28.643Z" agent="Mozilla/5.0 (Windows NT 10.0; Win64; x64) AppleWebKit/537.36 (KHTML, like Gecko) Chrome/120.0.0.0 Safari/537.36 OPR/106.0.0.0" etag="mD4z1stR-ilRmvPLQ1wH" version="22.1.21" type="google">
  <diagram name="PÃ¡gina-1" id="Q5Uge1hZGrgJfPV7QGL7">
    <mxGraphModel grid="0" page="1" gridSize="10" guides="1" tooltips="1" connect="1" arrows="1" fold="1" pageScale="1" pageWidth="827" pageHeight="1169" math="0" shadow="0">
      <root>
        <mxCell id="0" />
        <mxCell id="1" parent="0" />
        <mxCell id="8gaQoiRiQrIdBBKOMbqj-7" style="edgeStyle=orthogonalEdgeStyle;rounded=0;orthogonalLoop=1;jettySize=auto;html=1;exitX=0.5;exitY=1;exitDx=0;exitDy=0;endArrow=none;endFill=0;shape=link;" edge="1" parent="1" source="bJ7ttgvhOeTXi6YFnEi3-1" target="8gaQoiRiQrIdBBKOMbqj-4">
          <mxGeometry relative="1" as="geometry" />
        </mxCell>
        <mxCell id="bJ7ttgvhOeTXi6YFnEi3-1" value="User" style="whiteSpace=wrap;html=1;align=center;" vertex="1" parent="1">
          <mxGeometry x="304" y="163" width="100" height="40" as="geometry" />
        </mxCell>
        <mxCell id="bJ7ttgvhOeTXi6YFnEi3-7" style="edgeStyle=none;shape=connector;rounded=0;orthogonalLoop=1;jettySize=auto;html=1;exitX=1;exitY=1;exitDx=0;exitDy=0;labelBackgroundColor=default;strokeColor=default;align=center;verticalAlign=middle;fontFamily=Helvetica;fontSize=11;fontColor=default;endArrow=none;endFill=0;" edge="1" parent="1" source="bJ7ttgvhOeTXi6YFnEi3-2" target="bJ7ttgvhOeTXi6YFnEi3-1">
          <mxGeometry relative="1" as="geometry" />
        </mxCell>
        <mxCell id="bJ7ttgvhOeTXi6YFnEi3-2" value="Id" style="ellipse;whiteSpace=wrap;html=1;align=center;fontStyle=4;" vertex="1" parent="1">
          <mxGeometry x="79" y="63" width="100" height="40" as="geometry" />
        </mxCell>
        <mxCell id="bJ7ttgvhOeTXi6YFnEi3-5" style="rounded=0;orthogonalLoop=1;jettySize=auto;html=1;entryX=0.33;entryY=0.05;entryDx=0;entryDy=0;endArrow=none;endFill=0;entryPerimeter=0;" edge="1" parent="1" source="bJ7ttgvhOeTXi6YFnEi3-3" target="bJ7ttgvhOeTXi6YFnEi3-1">
          <mxGeometry relative="1" as="geometry" />
        </mxCell>
        <mxCell id="bJ7ttgvhOeTXi6YFnEi3-3" value="first_name" style="ellipse;whiteSpace=wrap;html=1;align=center;fontFamily=Helvetica;fontSize=11;fontColor=default;" vertex="1" parent="1">
          <mxGeometry x="198.5" y="30" width="100" height="40" as="geometry" />
        </mxCell>
        <mxCell id="bJ7ttgvhOeTXi6YFnEi3-6" style="edgeStyle=none;shape=connector;rounded=0;orthogonalLoop=1;jettySize=auto;html=1;exitX=0;exitY=1;exitDx=0;exitDy=0;labelBackgroundColor=default;strokeColor=default;align=center;verticalAlign=middle;fontFamily=Helvetica;fontSize=11;fontColor=default;endArrow=none;endFill=0;" edge="1" parent="1" source="bJ7ttgvhOeTXi6YFnEi3-4" target="bJ7ttgvhOeTXi6YFnEi3-1">
          <mxGeometry relative="1" as="geometry" />
        </mxCell>
        <mxCell id="bJ7ttgvhOeTXi6YFnEi3-4" value="last_name" style="ellipse;whiteSpace=wrap;html=1;align=center;fontFamily=Helvetica;fontSize=11;fontColor=default;" vertex="1" parent="1">
          <mxGeometry x="351" y="25" width="100" height="40" as="geometry" />
        </mxCell>
        <mxCell id="bJ7ttgvhOeTXi6YFnEi3-11" style="edgeStyle=none;shape=connector;rounded=0;orthogonalLoop=1;jettySize=auto;html=1;exitX=0;exitY=1;exitDx=0;exitDy=0;labelBackgroundColor=default;strokeColor=default;align=center;verticalAlign=middle;fontFamily=Helvetica;fontSize=11;fontColor=default;endArrow=none;endFill=0;" edge="1" parent="1" source="bJ7ttgvhOeTXi6YFnEi3-10" target="bJ7ttgvhOeTXi6YFnEi3-1">
          <mxGeometry relative="1" as="geometry" />
        </mxCell>
        <mxCell id="bJ7ttgvhOeTXi6YFnEi3-10" value="password" style="ellipse;whiteSpace=wrap;html=1;align=center;fontFamily=Helvetica;fontSize=11;fontColor=default;" vertex="1" parent="1">
          <mxGeometry x="490" y="63" width="100" height="40" as="geometry" />
        </mxCell>
        <mxCell id="8gaQoiRiQrIdBBKOMbqj-24" style="edgeStyle=none;shape=connector;rounded=0;orthogonalLoop=1;jettySize=auto;html=1;labelBackgroundColor=default;strokeColor=default;align=center;verticalAlign=middle;fontFamily=Helvetica;fontSize=11;fontColor=default;endArrow=none;endFill=0;entryX=0.721;entryY=0.27;entryDx=0;entryDy=0;entryPerimeter=0;" edge="1" parent="1" source="8gaQoiRiQrIdBBKOMbqj-30" target="8gaQoiRiQrIdBBKOMbqj-23">
          <mxGeometry relative="1" as="geometry">
            <mxPoint x="301" y="556" as="sourcePoint" />
          </mxGeometry>
        </mxCell>
        <mxCell id="8gaQoiRiQrIdBBKOMbqj-3" value="Admin" style="whiteSpace=wrap;html=1;align=center;" vertex="1" parent="1">
          <mxGeometry x="451" y="487" width="100" height="40" as="geometry" />
        </mxCell>
        <mxCell id="8gaQoiRiQrIdBBKOMbqj-8" style="rounded=0;orthogonalLoop=1;jettySize=auto;html=1;exitX=0.5;exitY=0;exitDx=0;exitDy=0;endArrow=none;endFill=0;" edge="1" parent="1" source="8gaQoiRiQrIdBBKOMbqj-4" target="8gaQoiRiQrIdBBKOMbqj-3">
          <mxGeometry relative="1" as="geometry" />
        </mxCell>
        <mxCell id="8gaQoiRiQrIdBBKOMbqj-9" style="rounded=0;orthogonalLoop=1;jettySize=auto;html=1;exitX=1;exitY=0.5;exitDx=0;exitDy=0;endArrow=none;endFill=0;" edge="1" parent="1" source="8gaQoiRiQrIdBBKOMbqj-4" target="8gaQoiRiQrIdBBKOMbqj-29">
          <mxGeometry relative="1" as="geometry">
            <mxPoint x="351.3921568627452" y="516" as="targetPoint" />
          </mxGeometry>
        </mxCell>
        <mxCell id="8gaQoiRiQrIdBBKOMbqj-10" style="edgeStyle=none;shape=connector;rounded=0;orthogonalLoop=1;jettySize=auto;html=1;exitX=0.5;exitY=1;exitDx=0;exitDy=0;labelBackgroundColor=default;strokeColor=default;align=center;verticalAlign=middle;fontFamily=Helvetica;fontSize=11;fontColor=default;endArrow=none;endFill=0;" edge="1" parent="1" source="8gaQoiRiQrIdBBKOMbqj-4">
          <mxGeometry relative="1" as="geometry">
            <mxPoint x="218.27272727272748" y="487" as="targetPoint" />
          </mxGeometry>
        </mxCell>
        <mxCell id="8gaQoiRiQrIdBBKOMbqj-4" value="" style="triangle;whiteSpace=wrap;html=1;rotation=90;" vertex="1" parent="1">
          <mxGeometry x="324" y="313" width="60" height="80" as="geometry" />
        </mxCell>
        <mxCell id="8gaQoiRiQrIdBBKOMbqj-11" value="" style="shape=requiredInterface;html=1;verticalLabelPosition=bottom;sketch=0;fontFamily=Helvetica;fontSize=11;fontColor=default;rotation=90;" vertex="1" parent="1">
          <mxGeometry x="330.5" y="328" width="47" height="149" as="geometry" />
        </mxCell>
        <mxCell id="8gaQoiRiQrIdBBKOMbqj-25" style="edgeStyle=none;shape=connector;rounded=0;orthogonalLoop=1;jettySize=auto;html=1;labelBackgroundColor=default;strokeColor=default;align=center;verticalAlign=middle;fontFamily=Helvetica;fontSize=11;fontColor=default;endArrow=none;endFill=0;entryX=0.071;entryY=0.326;entryDx=0;entryDy=0;entryPerimeter=0;" edge="1" parent="1" source="8gaQoiRiQrIdBBKOMbqj-12" target="8gaQoiRiQrIdBBKOMbqj-23">
          <mxGeometry relative="1" as="geometry" />
        </mxCell>
        <mxCell id="8gaQoiRiQrIdBBKOMbqj-12" value="Video" style="whiteSpace=wrap;html=1;align=center;" vertex="1" parent="1">
          <mxGeometry x="-338" y="539" width="100" height="40" as="geometry" />
        </mxCell>
        <mxCell id="8gaQoiRiQrIdBBKOMbqj-13" style="edgeStyle=none;shape=connector;rounded=0;orthogonalLoop=1;jettySize=auto;html=1;labelBackgroundColor=default;strokeColor=default;align=center;verticalAlign=middle;fontFamily=Helvetica;fontSize=11;fontColor=default;endArrow=none;endFill=0;" edge="1" parent="1" source="8gaQoiRiQrIdBBKOMbqj-14" target="8gaQoiRiQrIdBBKOMbqj-12">
          <mxGeometry relative="1" as="geometry" />
        </mxCell>
        <mxCell id="8gaQoiRiQrIdBBKOMbqj-14" value="Id" style="ellipse;whiteSpace=wrap;html=1;align=center;fontStyle=4;" vertex="1" parent="1">
          <mxGeometry x="-423" y="632" width="100" height="40" as="geometry" />
        </mxCell>
        <mxCell id="8gaQoiRiQrIdBBKOMbqj-15" style="edgeStyle=none;shape=connector;rounded=0;orthogonalLoop=1;jettySize=auto;html=1;entryX=0;entryY=0.75;entryDx=0;entryDy=0;labelBackgroundColor=default;strokeColor=default;align=center;verticalAlign=middle;fontFamily=Helvetica;fontSize=11;fontColor=default;endArrow=none;endFill=0;" edge="1" parent="1" source="8gaQoiRiQrIdBBKOMbqj-16" target="8gaQoiRiQrIdBBKOMbqj-12">
          <mxGeometry relative="1" as="geometry" />
        </mxCell>
        <mxCell id="8gaQoiRiQrIdBBKOMbqj-16" value="Class" style="ellipse;whiteSpace=wrap;html=1;align=center;fontFamily=Helvetica;fontSize=11;fontColor=default;" vertex="1" parent="1">
          <mxGeometry x="-488" y="576" width="100" height="40" as="geometry" />
        </mxCell>
        <mxCell id="8gaQoiRiQrIdBBKOMbqj-17" style="edgeStyle=none;shape=connector;rounded=0;orthogonalLoop=1;jettySize=auto;html=1;labelBackgroundColor=default;strokeColor=default;align=center;verticalAlign=middle;fontFamily=Helvetica;fontSize=11;fontColor=default;endArrow=none;endFill=0;" edge="1" parent="1" source="8gaQoiRiQrIdBBKOMbqj-18" target="8gaQoiRiQrIdBBKOMbqj-12">
          <mxGeometry relative="1" as="geometry" />
        </mxCell>
        <mxCell id="8gaQoiRiQrIdBBKOMbqj-18" value="Hand" style="ellipse;whiteSpace=wrap;html=1;align=center;fontFamily=Helvetica;fontSize=11;fontColor=default;" vertex="1" parent="1">
          <mxGeometry x="-495" y="502" width="100" height="40" as="geometry" />
        </mxCell>
        <mxCell id="8gaQoiRiQrIdBBKOMbqj-19" style="edgeStyle=none;shape=connector;rounded=0;orthogonalLoop=1;jettySize=auto;html=1;labelBackgroundColor=default;strokeColor=default;align=center;verticalAlign=middle;fontFamily=Helvetica;fontSize=11;fontColor=default;endArrow=none;endFill=0;" edge="1" parent="1" source="8gaQoiRiQrIdBBKOMbqj-20" target="8gaQoiRiQrIdBBKOMbqj-12">
          <mxGeometry relative="1" as="geometry" />
        </mxCell>
        <mxCell id="8gaQoiRiQrIdBBKOMbqj-20" value="Date" style="ellipse;whiteSpace=wrap;html=1;align=center;fontFamily=Helvetica;fontSize=11;fontColor=default;" vertex="1" parent="1">
          <mxGeometry x="-473" y="442" width="100" height="40" as="geometry" />
        </mxCell>
        <mxCell id="8gaQoiRiQrIdBBKOMbqj-23" value="Has" style="strokeWidth=2;html=1;shape=mxgraph.flowchart.decision;whiteSpace=wrap;fontFamily=Helvetica;fontSize=11;fontColor=default;" vertex="1" parent="1">
          <mxGeometry x="-83" y="582" width="119" height="55" as="geometry" />
        </mxCell>
        <mxCell id="8gaQoiRiQrIdBBKOMbqj-26" value="n" style="text;html=1;align=center;verticalAlign=middle;resizable=0;points=[];autosize=1;strokeColor=none;fillColor=none;fontSize=11;fontFamily=Helvetica;fontColor=default;" vertex="1" parent="1">
          <mxGeometry x="-243" y="578" width="24" height="25" as="geometry" />
        </mxCell>
        <mxCell id="8gaQoiRiQrIdBBKOMbqj-27" value="1" style="text;html=1;align=center;verticalAlign=middle;resizable=0;points=[];autosize=1;strokeColor=none;fillColor=none;fontSize=11;fontFamily=Helvetica;fontColor=default;" vertex="1" parent="1">
          <mxGeometry x="128" y="514" width="24" height="25" as="geometry" />
        </mxCell>
        <mxCell id="8gaQoiRiQrIdBBKOMbqj-28" value="N:1" style="text;html=1;align=center;verticalAlign=middle;resizable=0;points=[];autosize=1;strokeColor=none;fillColor=none;fontSize=11;fontFamily=Helvetica;fontColor=default;" vertex="1" parent="1">
          <mxGeometry x="-35" y="553" width="35" height="25" as="geometry" />
        </mxCell>
        <mxCell id="8gaQoiRiQrIdBBKOMbqj-29" value="Doctor" style="whiteSpace=wrap;html=1;align=center;" vertex="1" parent="1">
          <mxGeometry x="302" y="506.5" width="100" height="40" as="geometry" />
        </mxCell>
        <mxCell id="8gaQoiRiQrIdBBKOMbqj-30" value="Pacient" style="whiteSpace=wrap;html=1;align=center;" vertex="1" parent="1">
          <mxGeometry x="162" y="485" width="100" height="40" as="geometry" />
        </mxCell>
        <mxCell id="8gaQoiRiQrIdBBKOMbqj-33" value="Monitor" style="strokeWidth=2;html=1;shape=mxgraph.flowchart.decision;whiteSpace=wrap;fontFamily=Helvetica;fontSize=11;fontColor=default;" vertex="1" parent="1">
          <mxGeometry x="195" y="642" width="107" height="65" as="geometry" />
        </mxCell>
        <mxCell id="8gaQoiRiQrIdBBKOMbqj-34" style="edgeStyle=none;shape=connector;rounded=0;orthogonalLoop=1;jettySize=auto;html=1;exitX=0.5;exitY=1;exitDx=0;exitDy=0;entryX=0.402;entryY=0.108;entryDx=0;entryDy=0;entryPerimeter=0;labelBackgroundColor=default;strokeColor=default;align=center;verticalAlign=middle;fontFamily=Helvetica;fontSize=11;fontColor=default;endArrow=none;endFill=0;" edge="1" parent="1" source="8gaQoiRiQrIdBBKOMbqj-30" target="8gaQoiRiQrIdBBKOMbqj-33">
          <mxGeometry relative="1" as="geometry" />
        </mxCell>
        <mxCell id="8gaQoiRiQrIdBBKOMbqj-35" style="edgeStyle=none;shape=connector;rounded=0;orthogonalLoop=1;jettySize=auto;html=1;exitX=0.5;exitY=1;exitDx=0;exitDy=0;entryX=0.776;entryY=0.292;entryDx=0;entryDy=0;entryPerimeter=0;labelBackgroundColor=default;strokeColor=default;align=center;verticalAlign=middle;fontFamily=Helvetica;fontSize=11;fontColor=default;endArrow=none;endFill=0;" edge="1" parent="1" source="8gaQoiRiQrIdBBKOMbqj-29" target="8gaQoiRiQrIdBBKOMbqj-33">
          <mxGeometry relative="1" as="geometry" />
        </mxCell>
        <mxCell id="8gaQoiRiQrIdBBKOMbqj-36" value="1" style="text;html=1;align=center;verticalAlign=middle;resizable=0;points=[];autosize=1;strokeColor=none;fillColor=none;fontSize=11;fontFamily=Helvetica;fontColor=default;" vertex="1" parent="1">
          <mxGeometry x="346.5" y="553" width="24" height="25" as="geometry" />
        </mxCell>
        <mxCell id="8gaQoiRiQrIdBBKOMbqj-37" value="N" style="text;html=1;align=center;verticalAlign=middle;resizable=0;points=[];autosize=1;strokeColor=none;fillColor=none;fontSize=11;fontFamily=Helvetica;fontColor=default;" vertex="1" parent="1">
          <mxGeometry x="190" y="530" width="26" height="25" as="geometry" />
        </mxCell>
        <mxCell id="8gaQoiRiQrIdBBKOMbqj-38" value="N:1" style="text;html=1;align=center;verticalAlign=middle;resizable=0;points=[];autosize=1;strokeColor=none;fillColor=none;fontSize=11;fontFamily=Helvetica;fontColor=default;" vertex="1" parent="1">
          <mxGeometry x="237" y="619" width="35" height="25" as="geometry" />
        </mxCell>
        <mxCell id="8gaQoiRiQrIdBBKOMbqj-41" style="edgeStyle=none;shape=connector;rounded=0;orthogonalLoop=1;jettySize=auto;html=1;exitX=1;exitY=1;exitDx=0;exitDy=0;labelBackgroundColor=default;strokeColor=default;align=center;verticalAlign=middle;fontFamily=Helvetica;fontSize=11;fontColor=default;endArrow=none;endFill=0;" edge="1" parent="1" source="8gaQoiRiQrIdBBKOMbqj-39" target="8gaQoiRiQrIdBBKOMbqj-30">
          <mxGeometry relative="1" as="geometry" />
        </mxCell>
        <mxCell id="8gaQoiRiQrIdBBKOMbqj-39" value="gendre" style="ellipse;whiteSpace=wrap;html=1;align=center;fontFamily=Helvetica;fontSize=11;fontColor=default;" vertex="1" parent="1">
          <mxGeometry x="-12" y="391" width="100" height="40" as="geometry" />
        </mxCell>
        <mxCell id="8gaQoiRiQrIdBBKOMbqj-40" value="age" style="ellipse;whiteSpace=wrap;html=1;align=center;fontFamily=Helvetica;fontSize=11;fontColor=default;" vertex="1" parent="1">
          <mxGeometry x="70" y="344" width="100" height="40" as="geometry" />
        </mxCell>
        <mxCell id="8gaQoiRiQrIdBBKOMbqj-42" style="edgeStyle=none;shape=connector;rounded=0;orthogonalLoop=1;jettySize=auto;html=1;exitX=0.5;exitY=1;exitDx=0;exitDy=0;entryX=0.328;entryY=0.058;entryDx=0;entryDy=0;entryPerimeter=0;labelBackgroundColor=default;strokeColor=default;align=center;verticalAlign=middle;fontFamily=Helvetica;fontSize=11;fontColor=default;endArrow=none;endFill=0;" edge="1" parent="1" source="8gaQoiRiQrIdBBKOMbqj-40" target="8gaQoiRiQrIdBBKOMbqj-30">
          <mxGeometry relative="1" as="geometry" />
        </mxCell>
        <mxCell id="8gaQoiRiQrIdBBKOMbqj-44" style="edgeStyle=none;shape=connector;rounded=0;orthogonalLoop=1;jettySize=auto;html=1;exitX=0;exitY=0.5;exitDx=0;exitDy=0;labelBackgroundColor=default;strokeColor=default;align=center;verticalAlign=middle;fontFamily=Helvetica;fontSize=11;fontColor=default;endArrow=none;endFill=0;" edge="1" parent="1" source="8gaQoiRiQrIdBBKOMbqj-43" target="bJ7ttgvhOeTXi6YFnEi3-1">
          <mxGeometry relative="1" as="geometry" />
        </mxCell>
        <mxCell id="8gaQoiRiQrIdBBKOMbqj-43" value="username" style="ellipse;whiteSpace=wrap;html=1;align=center;fontFamily=Helvetica;fontSize=11;fontColor=default;" vertex="1" parent="1">
          <mxGeometry x="554" y="127" width="100" height="40" as="geometry" />
        </mxCell>
      </root>
    </mxGraphModel>
  </diagram>
</mxfile>
